<svg width="20" height="21" viewBox="0 0 20 21" fill="none" xmlns="http://www.w3.org/2000/svg">
<path d="M0 10.5C0 4.99219 4.45312 0.5 10 0.5C15.5078 0.5 20 4.99219 20 10.5C20 16.0469 15.5078 20.5 10 20.5C4.45312 20.5 0 16.0469 0 10.5ZM14.4922 8.78125C14.9219 8.35156 14.9219 7.6875 14.4922 7.25781C14.0625 6.82812 13.3984 6.82812 12.9688 7.25781L8.75 11.4766L6.99219 9.75781C6.5625 9.32812 5.89844 9.32812 5.46875 9.75781C5.03906 10.1875 5.03906 10.8516 5.46875 11.2812L7.96875 13.7812C8.39844 14.2109 9.0625 14.2109 9.49219 13.7812L14.4922 8.78125Z" fill="#02CB24"/>
</svg>
